<?xml version="1.0" encoding="UTF-8"?>
<svg version="1.1" xmlns="http://www.w3.org/2000/svg" width="233" height="233">
<path d="M0 0 C0.68281036 0.00054382 1.36562073 0.00108765 2.06912231 0.00164795 C13.10660049 0.0419902 23.40241439 0.91645949 33.9375 4.375 C34.96568848 4.70443604 34.96568848 4.70443604 36.01464844 5.04052734 C65.61200074 14.75280296 90.47440793 35.4740804 104.953125 63.11328125 C113.41217071 80.1076207 117.33805182 97.47224054 117.3125 116.4375 C117.31195618 117.12031036 117.31141235 117.80312073 117.31085205 118.50662231 C117.2705098 129.54410049 116.39604051 139.83991439 112.9375 150.375 C112.71787598 151.06045898 112.49825195 151.74591797 112.27197266 152.45214844 C102.55969704 182.04950074 81.8384196 206.91190793 54.19921875 221.390625 C37.2048793 229.84967071 19.84025946 233.77555182 0.875 233.75 C0.19218964 233.74945618 -0.49062073 233.74891235 -1.19412231 233.74835205 C-12.23160049 233.7080098 -22.52741439 232.83354051 -33.0625 229.375 C-33.74795898 229.15537598 -34.43341797 228.93575195 -35.13964844 228.70947266 C-64.73700074 218.99719704 -89.59940793 198.2759196 -104.078125 170.63671875 C-112.53717071 153.6423793 -116.46305182 136.27775946 -116.4375 117.3125 C-116.43695618 116.62968964 -116.43641235 115.94687927 -116.43585205 115.24337769 C-116.3955098 104.20589951 -115.52104051 93.91008561 -112.0625 83.375 C-111.73306396 82.34681152 -111.73306396 82.34681152 -111.39697266 81.29785156 C-101.68469704 51.70049926 -80.9634196 26.83809207 -53.32421875 12.359375 C-36.3298793 3.90032929 -18.96525946 -0.02555182 0 0 Z " fill="#000000" transform="translate(116.0625,-0.375)"/>
<path d="M0 0 C0.68281036 0.00054382 1.36562073 0.00108765 2.06912231 0.00164795 C13.10660049 0.0419902 23.40241439 0.91645949 33.9375 4.375 C34.96568848 4.70443604 34.96568848 4.70443604 36.01464844 5.04052734 C65.61200074 14.75280296 90.47440793 35.4740804 104.953125 63.11328125 C113.41217071 80.1076207 117.33805182 97.47224054 117.3125 116.4375 C117.31195618 117.12031036 117.31141235 117.80312073 117.31085205 118.50662231 C117.2705098 129.54410049 116.39604051 139.83991439 112.9375 150.375 C112.71787598 151.06045898 112.49825195 151.74591797 112.27197266 152.45214844 C102.55969704 182.04950074 81.8384196 206.91190793 54.19921875 221.390625 C37.2048793 229.84967071 19.84025946 233.77555182 0.875 233.75 C0.19218964 233.74945618 -0.49062073 233.74891235 -1.19412231 233.74835205 C-12.23160049 233.7080098 -22.52741439 232.83354051 -33.0625 229.375 C-33.74795898 229.15537598 -34.43341797 228.93575195 -35.13964844 228.70947266 C-64.73700074 218.99719704 -89.59940793 198.2759196 -104.078125 170.63671875 C-112.53717071 153.6423793 -116.46305182 136.27775946 -116.4375 117.3125 C-116.43695618 116.62968964 -116.43641235 115.94687927 -116.43585205 115.24337769 C-116.3955098 104.20589951 -115.52104051 93.91008561 -112.0625 83.375 C-111.73306396 82.34681152 -111.73306396 82.34681152 -111.39697266 81.29785156 C-101.68469704 51.70049926 -80.9634196 26.83809207 -53.32421875 12.359375 C-36.3298793 3.90032929 -18.96525946 -0.02555182 0 0 Z M-86.0625 45.375 C-88.65126177 48.57764094 -90.90583607 51.86973863 -93.0625 55.375 C-93.93455078 56.74011719 -93.93455078 56.74011719 -94.82421875 58.1328125 C-110.34895928 83.38998256 -115.17280315 113.51523626 -108.90405273 142.46337891 C-107.05710298 150.12207431 -104.35037041 157.21953391 -101.0625 164.375 C-100.40314453 165.8909375 -100.40314453 165.8909375 -99.73046875 167.4375 C-91.41506792 185.45819575 -76.95142866 201.96440411 -60.0625 212.375 C-58.95455078 213.1175 -58.95455078 213.1175 -57.82421875 213.875 C-42.77409294 223.58802237 -23.97769958 229.71147409 -6.0625 230.375 C-5.10730469 230.41496094 -4.15210937 230.45492187 -3.16796875 230.49609375 C28.5919307 231.16183763 58.14423634 220.0743672 81.34887695 198.34887695 C100.76352765 179.59887755 114.16553103 152.2185394 115.15234375 125.078125 C115.21365997 121.50242103 115.1457746 117.93859267 115.01123047 114.36523438 C114.94326721 112.53067642 114.90949894 110.69493649 114.87890625 108.859375 C113.7276155 78.85604038 98.18218639 51.83344765 76.53613281 31.78271484 C53.04010605 11.09271938 22.68470499 2.84650643 -8.03271484 4.16357422 C-38.47923829 6.28820672 -66.10723538 22.9609617 -86.0625 45.375 Z " fill="#B2994D" transform="translate(116.0625,-0.375)"/>
<path d="M0 0 C1.44596558 0.00241699 1.44596558 0.00241699 2.92114258 0.00488281 C13.25777627 0.17986192 31.9140252 1.7890252 39.5 9.375 C39.93133333 15.84499998 38.667279 22.02792045 37.5 28.375 C36.84 28.375 36.18 28.375 35.5 28.375 C35.005 26.6734375 35.005 26.6734375 34.5 24.9375 C31.96445866 18.23557618 27.02306743 12.41547051 20.6875 9 C19.30951162 8.41442209 17.91133077 7.87489891 16.5 7.375 C15.24896484 6.93027344 15.24896484 6.93027344 13.97265625 6.4765625 C3.03504518 3.05561671 -7.17138717 3.14552884 -17.5 8.375 C-23.41764021 11.99377998 -26.6340473 16.71719244 -28.5 23.375 C-29.60546514 29.97360118 -28.20122716 35.81264441 -24.5 41.375 C-16.72017443 49.62236316 -4.69445716 52.41468583 5.85351562 55.43212891 C38.90869535 64.93218167 38.90869535 64.93218167 48.484375 80.5078125 C52.38619029 87.68114985 50.99873502 96.56713826 48.9375 104.125 C45.79082971 113.35523284 40.09063641 118.99611529 31.5 123.375 C15.8936488 130.76748215 -6.74885233 130.74872385 -23.09375 125.703125 C-31.31666876 122.49694108 -40.38847942 117.88513056 -45.5 110.375 C-46.64938272 107.16410974 -46.70954461 105.86489098 -45.35546875 102.69921875 C-44.80503906 101.82910156 -44.25460938 100.95898438 -43.6875 100.0625 C-42.87345703 98.73798828 -42.87345703 98.73798828 -42.04296875 97.38671875 C-41.53378906 96.72285156 -41.02460937 96.05898437 -40.5 95.375 C-39.84 95.375 -39.18 95.375 -38.5 95.375 C-38.1596875 96.13683594 -37.819375 96.89867187 -37.46875 97.68359375 C-31.51727675 110.36213117 -24.2238113 118.26107984 -11.25 123.75 C1.73732812 125.91455469 14.32988331 124.5747861 25.5 117.375 C30.93058308 112.59471784 34.44493554 106.53127666 34.96875 99.25390625 C35.44918524 89.03641219 35.44918524 89.03641219 31.27294922 80.09008789 C24.81305845 73.84101977 16.28078445 70.96927738 7.875 68.375 C5.75329645 67.6906899 3.63220259 67.00448659 1.51171875 66.31640625 C0.4861084 65.98656738 -0.53950195 65.65672852 -1.59619141 65.31689453 C-30.89998504 55.81176288 -30.89998504 55.81176288 -37.5 43.375 C-40.44199824 36.43547745 -42.14296736 29.12135016 -39.62109375 21.8359375 C-35.14548469 12.0575441 -28.50959769 6.2093796 -18.5 2.375 C-12.25528798 0.47559453 -6.51208848 -0.0114117 0 0 Z " fill="#C7AB57" transform="translate(115.5,49.625)"/>
<path d="M0 0 C2 1 2 1 3 3 C2.17757812 3.4846875 1.35515625 3.969375 0.5078125 4.46875 C-14.79977949 13.66037568 -28.42063661 24.69157425 -38 40 C-38.58394531 40.91265625 -39.16789062 41.8253125 -39.76953125 42.765625 C-55.27653587 68.0362992 -60.11201302 98.13234033 -53.84155273 127.08837891 C-51.99460298 134.74707431 -49.28787041 141.84453391 -46 149 C-45.34064453 150.5159375 -45.34064453 150.5159375 -44.66796875 152.0625 C-36.4938603 169.77699439 -22.55496505 185.70095409 -6 196 C-5.26007812 196.49628906 -4.52015625 196.99257812 -3.7578125 197.50390625 C11.29695436 207.21093606 30.08302983 213.33640851 48 214 C48.95519531 214.03996094 49.91039063 214.07992187 50.89453125 214.12109375 C83.29027425 214.80016604 112.93028887 203.24195047 136.4375 181 C153.00641631 164.05611528 162.75232359 142.46987735 167.32421875 119.4140625 C167.54722656 118.61742187 167.77023438 117.82078125 168 117 C168.66 116.67 169.32 116.34 170 116 C170.82597477 140.90631618 154.36883339 166.28500452 138.2265625 183.703125 C118.71362877 203.83225664 91.01773454 217.46509659 62.77734375 218.3359375 C60.16419989 218.36573012 57.55081173 218.3782018 54.9375 218.375 C54.25635132 218.37512085 53.57520264 218.3752417 52.87341309 218.37536621 C37.6485701 218.3369715 24.13900174 215.85491702 10 210 C10 209.34 10 208.68 10 208 C9.236875 207.79375 8.47375 207.5875 7.6875 207.375 C-18.33707852 197.67091987 -38.51550804 174.89617081 -49.94116211 150.18383789 C-62.16565184 122.69321345 -64.13116271 90.92277149 -53.93994141 62.36865234 C-44.77467473 39.27218031 -28.59986233 16.88831564 -7 4 C-6.31035156 3.56171875 -5.62070312 3.1234375 -4.91015625 2.671875 C-3 1.5 -3 1.5 0 0 Z " fill="#B69C4F" transform="translate(62,15)"/>
<path d="M0 0 C1.44335311 0.01005821 2.88671306 0.019179 4.33007812 0.02734375 C7.82436394 0.04911309 11.31838637 0.08348325 14.8125 0.125 C14.8125 0.455 14.8125 0.785 14.8125 1.125 C13.67989746 1.154729 13.67989746 1.154729 12.52441406 1.18505859 C9.03681407 1.28149239 5.54971903 1.39068279 2.0625 1.5 C0.87527344 1.5309375 -0.31195313 1.561875 -1.53515625 1.59375 C-34.28120451 2.66739093 -63.0398656 16.40102333 -85.48828125 39.9921875 C-107.4637243 63.9847002 -115.19246325 94.59740323 -114.31933594 126.39648438 C-113.14078372 150.78815035 -101.95425807 177.69195397 -84.421875 194.828125 C-82.1875 197.125 -82.1875 197.125 -82.1875 199.125 C-81.61902344 199.36992187 -81.05054688 199.61484375 -80.46484375 199.8671875 C-77.79259397 201.34311276 -75.94316127 203.12710865 -73.75 205.25 C-65.35281925 212.94226278 -55.44837321 218.30725366 -45.1875 223.125 C-48.1875 224.125 -48.1875 224.125 -51.33984375 222.7890625 C-52.60898669 222.12334072 -53.87032691 221.4426072 -55.125 220.75 C-55.79233154 220.38640381 -56.45966309 220.02280762 -57.1472168 219.64819336 C-85.81071956 203.63366988 -104.59640208 178.06479805 -114.14453125 147.171875 C-116.85409716 137.13106288 -117.5764964 127.45101098 -117.5625 117.0625 C-117.56195618 116.37968964 -117.56141235 115.69687927 -117.56085205 114.99337769 C-117.5205098 103.95589951 -116.64604051 93.66008561 -113.1875 83.125 C-112.85806396 82.09681152 -112.85806396 82.09681152 -112.52197266 81.04785156 C-102.80969704 51.45049926 -82.0884196 26.58809207 -54.44921875 12.109375 C-36.98162835 3.41476548 -19.42746848 -0.23793318 0 0 Z " fill="#090804" transform="translate(117.1875,-0.125)"/>
<path d="M0 0 C0.33 0 0.66 0 1 0 C1.82626413 24.91504149 -14.63608755 50.26263257 -30.765625 67.69921875 C-36.35280633 73.45245267 -42.35484045 78.41313026 -48.875 83.0625 C-49.43477539 83.46927979 -49.99455078 83.87605957 -50.57128906 84.29516602 C-52.1796875 85.41015625 -52.1796875 85.41015625 -55 87 C-55.99 86.67 -56.98 86.34 -58 86 C-55.15699287 82.88186315 -52.37908255 80.5138946 -48.8125 78.25 C-43.35235325 74.71589503 -38.72483166 70.44783148 -34 66 C-33.10861328 65.22269531 -33.10861328 65.22269531 -32.19921875 64.4296875 C-15.22911773 48.95813955 -6.1609951 25.31591847 -1.578125 3.4140625 C-1 1 -1 1 0 0 Z " fill="#C3A855" transform="translate(231,131)"/>
<path d="M0 0 C2 1 2 1 3 3 C2.17757812 3.4846875 1.35515625 3.969375 0.5078125 4.46875 C-18.62320763 15.95619858 -32.79576081 30.01363103 -43.421875 49.7265625 C-43.94265625 50.47679687 -44.4634375 51.22703125 -45 52 C-45.99 52 -46.98 52 -48 52 C-46.63351249 47.27810597 -44.60954612 43.34125015 -41.9375 39.25 C-41.33977783 38.33093872 -41.33977783 38.33093872 -40.72998047 37.39331055 C-36.98572189 31.76661602 -32.71996444 26.83621972 -28 22 C-27.12214844 21.071875 -26.24429688 20.14375 -25.33984375 19.1875 C-19.66710335 13.31529615 -13.91672949 8.34060065 -7 4 C-6.30390625 3.55527344 -5.6078125 3.11054688 -4.890625 2.65234375 C-3 1.5 -3 1.5 0 0 Z " fill="#BFA453" transform="translate(62,15)"/>
<path d="M0 0 C0.99 0.33 1.98 0.66 3 1 C4.10546875 3.4140625 4.10546875 3.4140625 5.1875 6.625 C10.19175895 20.26347289 17.30288105 33.46572559 27.76953125 43.7109375 C30 46 30 46 30 48 C30.56847656 48.24492187 31.13695313 48.48984375 31.72265625 48.7421875 C34.39490603 50.21811276 36.24433873 52.00210865 38.4375 54.125 C46.83468075 61.81726278 56.73912679 67.18225366 67 72 C64 73 64 73 60.84765625 71.6640625 C59.57851331 70.99834072 58.31717309 70.3176072 57.0625 69.625 C56.39516846 69.26140381 55.72783691 68.89780762 55.0402832 68.52319336 C31.60166416 55.42785334 8.88951961 32.31123184 1.37109375 5.78076172 C0.88829924 3.86013424 0.44081715 1.93069436 0 0 Z " fill="#0D0B05" transform="translate(5,151)"/>
<path d="M0 0 C2.86697492 1.28519565 4.97607712 2.57129254 7 5 C7 5.66 7 6.32 7 7 C7.85271484 7.36738281 7.85271484 7.36738281 8.72265625 7.7421875 C11.39490603 9.21811276 13.24433873 11.00210865 15.4375 13.125 C23.83468075 20.81726278 33.73912679 26.18225366 44 31 C41 32 41 32 37.84765625 30.6640625 C36.57851331 29.99834072 35.31717309 29.3176072 34.0625 28.625 C33.39516846 28.26140381 32.72783691 27.89780762 32.0402832 27.52319336 C21.63775273 21.71121811 12.626855 14.17363254 4 6 C3.2471875 5.29488281 2.494375 4.58976563 1.71875 3.86328125 C0 2 0 2 0 0 Z " fill="#151209" transform="translate(28,192)"/>
<path d="M0 0 C0.33 0 0.66 0 1 0 C1.44310722 6.49890586 0.33429115 12.90970952 -2 19 C-2.99 19.33 -3.98 19.66 -5 20 C-4.55040347 17.22748806 -4.09073921 14.45730481 -3.625 11.6875 C-3.43550781 10.50897461 -3.43550781 10.50897461 -3.2421875 9.30664062 C-3.11328125 8.54931641 -2.984375 7.79199219 -2.8515625 7.01171875 C-2.73635254 6.31522217 -2.62114258 5.61872559 -2.50244141 4.90112305 C-2 3 -2 3 0 0 Z " fill="#C6AA57" transform="translate(231,131)"/>
<path d="M0 0 C0.66 0.33 1.32 0.66 2 1 C1 4 1 4 -2 6 C-2.99 5.67 -3.98 5.34 -5 5 C-3.35 3.35 -1.7 1.7 0 0 Z " fill="#C0A553" transform="translate(178,212)"/>
</svg>
